<svg id="Lager_1" data-name="Lager 1" xmlns="http://www.w3.org/2000/svg" viewBox="0 0 250 188">
  <defs>
    <style>
      .cls-1 {
        fill: #fff;
      }

      .cls-2 {
        fill: #1d1d1b;
      }
    </style>
  </defs>
  <title>chatbubble</title>
  <path class="cls-1" d="M224,7H41A33.6,33.6,0,0,0,7.5,40.5v80A33.6,33.6,0,0,0,41,154H168.93c9.33,24.73,61.57,41,61.57,41-26.39-11.57-29.36-28.31-26.72-41H224a33.6,33.6,0,0,0,33.5-33.5v-80A33.6,33.6,0,0,0,224,7Z" transform="translate(-7.5 -7)"/>
  <g>
    <path class="cls-2" d="M51.35,94.68q-.8-1.84-1.88-4.52t-2.24-5.68h-11q-1.16,3-2.24,5.68t-1.88,4.52H29.44L31,90.86q1-2.38,2.16-5.22l2.4-5.9,2.4-5.9q1.16-2.84,2.14-5.2t1.62-3.84q.6,1.48,1.6,3.84t2.16,5.2l2.42,5.9,2.42,5.9,2.14,5.22q1,2.38,1.62,3.82Zm-10-22.87q-.8,1.88-1.9,4.6t-2.26,5.72h9.12L44,76.41q-1.08-2.72-1.88-4.6a4,4,0,0,1-.2-.54q-.12-.38-.2-.7-.08.32-.2.7A4.09,4.09,0,0,1,41.35,71.81Z" transform="translate(-7.5 -7)"/>
    <path class="cls-2" d="M58.79,66.13h6.64a18.13,18.13,0,0,1,7.32,1.32,14.13,14.13,0,0,1,4.88,3.4,12.81,12.81,0,0,1,2.72,4.66,16.4,16.4,0,0,1,.84,5.1A14.18,14.18,0,0,1,80,86.44a13.43,13.43,0,0,1-7.68,7.26,15.51,15.51,0,0,1-5.52,1h-8Zm7.76,26a13.41,13.41,0,0,0,4.66-.8A11.2,11.2,0,0,0,75,89a10.55,10.55,0,0,0,2.54-3.66,13.12,13.12,0,0,0,.06-9.5,10.66,10.66,0,0,0-2.46-3.7,11.65,11.65,0,0,0-3.84-2.46,13.42,13.42,0,0,0-5-.9H61.54V92.08Z" transform="translate(-7.5 -7)"/>
    <path class="cls-2" d="M85.18,80.44a14.22,14.22,0,0,1,1.14-5.66A14.74,14.74,0,0,1,94.07,67a14,14,0,0,1,5.66-1.16A14.14,14.14,0,0,1,105.41,67a14.7,14.7,0,0,1,4.66,3.16,15.19,15.19,0,0,1,3.14,4.66,14.38,14.38,0,0,1,0,11.32,14.94,14.94,0,0,1-3.14,4.64,14.58,14.58,0,0,1-4.66,3.12A14.35,14.35,0,0,1,99.73,95a14.21,14.21,0,0,1-5.66-1.14,14.54,14.54,0,0,1-7.76-7.76A14.21,14.21,0,0,1,85.18,80.44Zm2.72,0a11.63,11.63,0,0,0,.94,4.66,12.23,12.23,0,0,0,2.54,3.8,11.88,11.88,0,0,0,3.76,2.56,11.39,11.39,0,0,0,4.6.94,11.54,11.54,0,0,0,4.62-.94,12,12,0,0,0,6.36-6.36,12,12,0,0,0,0-9.32A12.33,12.33,0,0,0,108.15,72a11.93,11.93,0,0,0-3.8-2.58,11.56,11.56,0,0,0-4.62-.94,11.36,11.36,0,0,0-4.62.94,12,12,0,0,0-6.3,6.4A11.85,11.85,0,0,0,87.9,80.44Z" transform="translate(-7.5 -7)"/>
    <path class="cls-2" d="M120.44,94.68V66.13h6.92a12.13,12.13,0,0,1,3.48.5,8.67,8.67,0,0,1,3,1.54,7.68,7.68,0,0,1,2.08,2.6,8.23,8.23,0,0,1,.78,3.72,10.24,10.24,0,0,1-.52,3.22,7.75,7.75,0,0,1-1.62,2.8,8.12,8.12,0,0,1-2.86,2,10.66,10.66,0,0,1-4.24.76h-4.28V94.68Zm2.72-14h4.24a7.32,7.32,0,0,0,3.2-.62,5.64,5.64,0,0,0,2-1.56,5.75,5.75,0,0,0,1-2,7.17,7.17,0,0,0,.3-1.94,5.77,5.77,0,0,0-.42-2.14,5.66,5.66,0,0,0-1.22-1.88,5.87,5.87,0,0,0-2-1.32,7.55,7.55,0,0,0-2.84-.5h-4.28Z" transform="translate(-7.5 -7)"/>
    <path class="cls-2" d="M158,66.13v2.6h-7.6v26h-2.76v-26h-7.52v-2.6Z" transform="translate(-7.5 -7)"/>
    <path class="cls-2" d="M172.59,64.85l1.88,2.74,2.44,3.5q1.32,1.88,2.72,3.84l2.7,3.78L184.7,82l1.76,2.48,1.3-1.88,2.2-3.16,2.74-3.9,2.9-4.12q1.42-2,2.68-3.76l2.06-2.86V94.68h-2.88V74.33a7.57,7.57,0,0,1,0-.76c0-.27,0-.49,0-.68l-1.62,2.3q-.94,1.34-2,2.86l-2.12,3.1-2.08,3.06L187.88,87l-1.42,2.12q-.56-.72-1.52-2.06t-2.1-3l-2.38-3.44q-1.24-1.78-2.3-3.34l-1.88-2.74q-.82-1.18-1.1-1.62a4.7,4.7,0,0,0,.06.68,5.13,5.13,0,0,1,.06.76V94.68h-2.72Z" transform="translate(-7.5 -7)"/>
    <path class="cls-2" d="M208.53,94.68V66.13h18v2.48H211.25V79h13.68V81.6H211.25V92.12h15.84v2.56Z" transform="translate(-7.5 -7)"/>
    <path class="cls-2" d="M234,94.16a1.53,1.53,0,0,1-1.12-.48,1.58,1.58,0,0,1-.48-1.16,1.55,1.55,0,0,1,.48-1.2,1.61,1.61,0,0,1,1.12-.44,1.63,1.63,0,0,1,1.1.44,1.52,1.52,0,0,1,.5,1.2,1.68,1.68,0,0,1-1.6,1.64Zm-1.2-29.71h2.36V88h-2.36Z" transform="translate(-7.5 -7)"/>
  </g>
</svg>
