<svg id="Lager_1" data-name="Lager 1" xmlns="http://www.w3.org/2000/svg" viewBox="0 0 250 188">
  <defs>
    <style>
      .class1 {
        fill: #fff;
      }

      .class2 {
        fill: #1d1d1b;
      }
    </style>
  </defs>
  <title>chatbubble</title>
  <path id ="chatbubble" class="class1" d="M224,7H41A33.6,33.6,0,0,0,7.5,40.5v80A33.6,33.6,0,0,0,41,154H168.93c9.33,24.73,61.57,41,61.57,41-26.39-11.57-29.36-28.31-26.72-41H224a33.6,33.6,0,0,0,33.5-33.5v-80A33.6,33.6,0,0,0,224,7Z" transform="translate(-7.5 -7)"/>  
    <g id="highfiveme">
      <path class="class2" d="M24.34,90.44V66.16h2.35V77.11h13.8V66.16h2.38v7.33q0,2.3,0,4.79t0,4.79q0,2.29,0,4.23t0,3.13H40.49V79.32H26.68V90.44Z" transform="translate(-7.5 -7)"/>
      <path class="class2" d="M49.77,66.16h2.35V90.44H49.77Z" transform="translate(-7.5 -7)"/>
      <path class="class2" d="M76.59,79.32V89a12.41,12.41,0,0,1-3.16,1.27,14.69,14.69,0,0,1-3.71.46,13.54,13.54,0,0,1-5.15-.94,11.55,11.55,0,0,1-3.91-2.57,11.43,11.43,0,0,1-2.5-3.84A12.89,12.89,0,0,1,61,69.49a12.39,12.39,0,0,1,4-2.65,12.53,12.53,0,0,1,4.84-1,14.61,14.61,0,0,1,3.52.44,11.29,11.29,0,0,1,3.18,1.29l-1.16,1.9a9.79,9.79,0,0,0-2.63-1.07,11.75,11.75,0,0,0-2.94-.39,9.64,9.64,0,0,0-3.93.82,10.78,10.78,0,0,0-3.26,2.21,10.27,10.27,0,0,0-2.23,3.3,10.16,10.16,0,0,0-.82,4,10.37,10.37,0,0,0,.73,3.88,9.81,9.81,0,0,0,2.06,3.21,9.63,9.63,0,0,0,3.2,2.18,10.45,10.45,0,0,0,4.15.8,11.76,11.76,0,0,0,2.36-.25,11.09,11.09,0,0,0,2.36-.77V81.36H69.21v-2Z" transform="translate(-7.5 -7)"/>
      <path class="class2" d="M82.27,90.44V66.16h2.35V77.11h13.8V66.16h2.38v7.33q0,2.3,0,4.79t0,4.79q0,2.29,0,4.23t0,3.13H98.42V79.32H84.62V90.44Z" transform="translate(-7.5 -7)"/>
      <path class="class2" d="M107.74,90.44V66.16h13.91V68.3H110v9.18h10.23v2.18H110V90.44Z" transform="translate(-7.5 -7)"/>
      <path class="class2" d="M126.5,66.16h2.35V90.44H126.5Z" transform="translate(-7.5 -7)"/>
      <path class="class2" d="M135.18,66.16l1.1,2.72,1.34,3.33q.71,1.77,1.46,3.66t1.46,3.65l1.34,3.33q.63,1.56,1.1,2.72l.34,1.09.34-1.09,1.1-2.72,1.34-3.33q.71-1.77,1.46-3.65T149,72.21l1.34-3.33q.63-1.56,1.1-2.72h2.35q-.54,1.26-1.38,3.26t-1.82,4.42l-2.06,5-2.06,5q-1,2.4-1.84,4.42t-1.36,3.28q-.51-1.26-1.36-3.28t-1.84-4.42q-1-2.4-2-5l-2-5q-1-2.41-1.84-4.42t-1.36-3.26Z" transform="translate(-7.5 -7)"/>
      <path class="class2" d="M157.85,90.44V66.16h15.3v2.11h-13v8.87h11.63v2.18H160.17v8.94h13.46v2.18Z" transform="translate(-7.5 -7)"/>
      <path class="class2" d="M187,65.07l1.6,2.33,2.07,3q1.12,1.6,2.31,3.26l2.29,3.21,2,2.84,1.5,2.11,1.11-1.6,1.87-2.69,2.33-3.31,2.46-3.5q1.21-1.72,2.28-3.2l1.75-2.43V90.44h-2.45V73.13a6.29,6.29,0,0,1,0-.65c0-.23,0-.42,0-.58l-1.38,2q-.8,1.14-1.68,2.43l-1.8,2.64-1.77,2.6L200,83.87l-1.21,1.8q-.48-.61-1.29-1.75t-1.78-2.55l-2-2.92q-1.05-1.51-2-2.84l-1.6-2.33q-.7-1-.94-1.38a4.1,4.1,0,0,0,.05.58,4.35,4.35,0,0,1,.05.65V90.44H187Z" transform="translate(-7.5 -7)"/>
      <path class="class2" d="M217.56,90.44V66.16h15.3v2.11h-13v8.87H231.5v2.18H219.87v8.94h13.46v2.18Z" transform="translate(-7.5 -7)"/>
      <path class="class2" d="M239.18,90a1.3,1.3,0,0,1-1-.41,1.34,1.34,0,0,1-.41-1,1.31,1.31,0,0,1,.41-1,1.36,1.36,0,0,1,1-.37,1.39,1.39,0,0,1,.93.37,1.29,1.29,0,0,1,.42,1A1.43,1.43,0,0,1,239.18,90Zm-1-25.26h2v20h-2Z" transform="translate(-7.5 -7)"/>
    </g>
</svg>
