<svg id="Lager_1" data-name="Lager 1" xmlns="http://www.w3.org/2000/svg" viewBox="0 0 250 188">
  <defs>
    <style>
      .class1 {
        fill: #fff;
      }

      .class2 {
        fill: #1d1d1b;
      }
    </style>
  </defs>
  <path id ="chatbubble" class="class1" d="M224,7H41A33.6,33.6,0,0,0,7.5,40.5v80A33.6,33.6,0,0,0,41,154H168.93c9.33,24.73,61.57,41,61.57,41-26.39-11.57-29.36-28.31-26.72-41H224a33.6,33.6,0,0,0,33.5-33.5v-80A33.6,33.6,0,0,0,224,7Z" transform="translate(-7.5 -7)"/>  

    <g id="patme">
      <path class="class2" d="M63.55,95V66.45h6.92a12.15,12.15,0,0,1,3.48.5,8.7,8.7,0,0,1,3,1.54A7.69,7.69,0,0,1,79,71.09a8.23,8.23,0,0,1,.78,3.72A10.25,10.25,0,0,1,79.27,78a7.75,7.75,0,0,1-1.62,2.8,8.09,8.09,0,0,1-2.86,2,10.66,10.66,0,0,1-4.24.76H66.27V95Zm2.72-14h4.24a7.31,7.31,0,0,0,3.2-.62,5.64,5.64,0,0,0,2-1.56,5.74,5.74,0,0,0,1-2,7.16,7.16,0,0,0,.3-1.94,5.77,5.77,0,0,0-.42-2.14,5.66,5.66,0,0,0-1.22-1.88,5.9,5.9,0,0,0-2-1.32,7.56,7.56,0,0,0-2.84-.5H66.27Z" transform="translate(-7.5 -7)"/>
      <path class="class2" d="M101.75,95q-.8-1.84-1.88-4.52t-2.24-5.68h-11q-1.16,3-2.24,5.68T82.55,95H79.83l1.6-3.82q1-2.38,2.16-5.22l2.4-5.9,2.4-5.9q1.16-2.84,2.14-5.2t1.62-3.84q.6,1.48,1.6,3.84t2.16,5.2l2.42,5.9,2.42,5.9,2.14,5.22q1,2.38,1.62,3.82Zm-10-22.88q-.8,1.88-1.9,4.6t-2.26,5.72h9.12l-2.28-5.72q-1.08-2.72-1.88-4.6a4,4,0,0,1-.2-.54q-.12-.38-.2-.7-.08.32-.2.7A4.09,4.09,0,0,1,91.75,72.13Z" transform="translate(-7.5 -7)"/>
      <path class="class2" d="M122.15,66.45v2.6h-7.6V95h-2.76v-26h-7.52v-2.6Z" transform="translate(-7.5 -7)"/>
      <path class="class2" d="M136.71,65.17l1.88,2.74q1.12,1.62,2.44,3.5t2.72,3.84l2.7,3.78,2.38,3.34,1.76,2.48,1.3-1.88,2.2-3.16,2.74-3.9,2.9-4.12q1.42-2,2.68-3.76l2.06-2.86V95h-2.88V74.65c0-.24,0-.49,0-.76s0-.49,0-.68L160,75.51q-.94,1.34-2,2.86l-2.12,3.1-2.08,3.06L152,87.29l-1.42,2.12q-.56-.72-1.52-2.06t-2.1-3l-2.38-3.44q-1.24-1.78-2.3-3.34l-1.88-2.74q-.82-1.18-1.1-1.62a4.68,4.68,0,0,0,.06.68,5.13,5.13,0,0,1,.06.76V95h-2.72Z" transform="translate(-7.5 -7)"/>
      <path class="class2" d="M172.67,95V66.45h18v2.48H175.39V79.37h13.68v2.56H175.39V92.45h15.84V95Z" transform="translate(-7.5 -7)"/>
      <path class="class2" d="M198.11,94.49A1.54,1.54,0,0,1,197,94a1.58,1.58,0,0,1-.48-1.16,1.55,1.55,0,0,1,.48-1.2,1.61,1.61,0,0,1,1.12-.44,1.63,1.63,0,0,1,1.1.44,1.52,1.52,0,0,1,.5,1.2,1.68,1.68,0,0,1-1.6,1.64Zm-1.2-29.72h2.36V88.33h-2.36Z" transform="translate(-7.5 -7)"/>
    </g>

</svg>
