<?xml version="1.0" encoding="utf-8"?>
<!-- Generator: Adobe Illustrator 21.1.0, SVG Export Plug-In . SVG Version: 6.00 Build 0)  -->
<svg version="1.1" id="Lager_1" xmlns="http://www.w3.org/2000/svg" xmlns:xlink="http://www.w3.org/1999/xlink" x="0px" y="0px"
	 viewBox="0 0 467.7 304.1" style="enable-background:new 0 0 467.7 304.1;" xml:space="preserve">
<style type="text/css">
	.st0{fill:none;}
	.st1{enable-background:new    ;}
	.st2{fill:#382216;}
	.st3{font-family:'JosefinSans';}
	.st4{font-size:72px;}
	.st5{display:none;fill:#382216;}
	.st6{fill:none;stroke:#382216;stroke-width:4;stroke-miterlimit:10;}
</style>
<title>logotype</title>
<rect x="66.5" y="112.8" class="st0" width="353.9" height="78.6"/>
<text transform="matrix(1 0 0 1 66.5301 173.98)" class="st1"><tspan x="0" y="0" class="st2 st3 st4">ATOP</tspan><tspan x="184.5" y="0" class="st2 st3 st4">-</tspan></text>
<rect y="200.8" class="st2" width="456.1" height="5.3"/>
<rect y="303.2" class="st5" width="564" height="3"/>
<path class="st2" d="M104.8,279.7c-4.3,8.1-18.3,8.9-25.9,6.3c-8.4-2.9-14.8-10.5-12.5-19.8c4.5-17.7,27.5-24.4,41-33.4
	c4.8-3.2,11.1-7.7,11.5-14c0.3-5.1-3.9-9.6-8-11.9c-10-5.6-23.6-7.5-34.9-8c-2.4-0.1-2.4,3.6,0,3.8c7.4,0.4,14.7,1.5,21.8,3.4
	c5.8,1.5,15.2,3.7,17.2,10.5c2.7,9.3-16.1,17.1-22.3,20.6c-7.5,4.1-15.1,8.4-21.2,14.4c-9.8,9.7-13.3,24.8-1,34.1
	c6.1,4.4,13.6,6.3,21,5.2c6.2-0.8,13.7-3.3,16.8-9.2c1.1-2.1-2.1-4-3.2-1.9L104.8,279.7z"/>
<path class="st6" d="M79.8,200.9c0,0-93.8,0-29.1-104.7c3-4.9,2-19.2,2-19.2s-2.8-2.2-7.6,4.4c0,0,1.9-11.5,3.8-13.2
	c-3.8,2.3-6.8,5.8-8.6,9.9c0,0,1-21.9,9.1-25.2c0,0-7.7,2.2-12.5,14.8c0,0-3.3-12.6,11.5-24.1c0,0-3.3-4.9-3.3-9.3s1.9-17,1.9-17
	S63.4,24.9,63.8,31c0,0,6.7-0.6,10.5,2.2c0,0,9.1-5.5,14.4-5.5c0,0,8.6-13.2,14.4-15.9c0,0,5.3,12.6,3.3,18.1
	c-1.3,3.5-3.1,6.8-5.3,9.9c0,0,11,12.6,11,17c0,0-5.3,0.6-7.7-1.6c0,0,8.1,7.1,8.1,15.9c0,0-5.3-2.2-8.1-4.9c0,0,5.3,9.9,5.8,13.2
	c0,0-6.7-4.9-7.2-5.5"/>
</svg>
