<svg id="Lager_1" data-name="Lager 1" xmlns="http://www.w3.org/2000/svg" viewBox="0 0 456.1 282.1">
  <defs>
    <style>
      .cls-1, .cls-3 {
        fill: #382216;
      }

      .cls-2 {
        fill: none;
        stroke: #382216;
        stroke-miterlimit: 10;
        stroke-width: 4px;
      }

      .cls-3 {
        font-size: 68px;
        font-family: JosefinSans, Josefin Sans;
      }

      .cls-4 {
        letter-spacing: -0.06em;
      }

      .cls-5 {
        letter-spacing: -0.03em;
      }
    </style>
  </defs>
  <title>logotype</title>
  <rect class="cls-1" y="191.9" width="456.1" height="3.53"/>
  <path class="cls-1" d="M104.8,279.7c-4.3,8.1-18.3,8.9-25.9,6.3-8.4-2.9-14.8-10.5-12.5-19.8,4.5-17.7,27.5-24.4,41-33.4,4.8-3.2,11.1-7.7,11.5-14,.3-5.1-3.9-9.6-8-11.9-10-5.6-23.6-7.5-34.9-8-2.4-.1-2.4,3.6,0,3.8a106.46,106.46,0,0,1,21.8,3.4c5.8,1.5,15.2,3.7,17.2,10.5,2.7,9.3-16.1,17.1-22.3,20.6-7.5,4.1-15.1,8.4-21.2,14.4-9.8,9.7-13.3,24.8-1,34.1a28.67,28.67,0,0,0,21,5.2c6.2-.8,13.7-3.3,16.8-9.2,1.1-2.1-2.1-4-3.2-1.9Z" transform="translate(0 -9.11)"/>
  <path class="cls-2" d="M79.8,200.9s-93.8,0-29.1-104.7c3-4.9,2-19.2,2-19.2s-2.8-2.2-7.6,4.4c0,0,1.9-11.5,3.8-13.2a21.81,21.81,0,0,0-8.6,9.9s1-21.9,9.1-25.2c0,0-7.7,2.2-12.5,14.8,0,0-3.3-12.6,11.5-24.1,0,0-3.3-4.9-3.3-9.3s1.9-17,1.9-17S63.4,24.9,63.8,31c0,0,6.7-.6,10.5,2.2,0,0,9.1-5.5,14.4-5.5,0,0,8.6-13.2,14.4-15.9,0,0,5.3,12.6,3.3,18.1a43,43,0,0,1-5.3,9.9s11,12.6,11,17c0,0-5.3.6-7.7-1.6,0,0,8.1,7.1,8.1,15.9,0,0-5.3-2.2-8.1-4.9,0,0,5.3,9.9,5.8,13.2,0,0-6.7-4.9-7.2-5.5" transform="translate(0 -9.11)"/>
  <text class="cls-3" transform="translate(64.35 163.03)"><tspan class="cls-4">A</tspan><tspan class="cls-5" x="39.51" y="0">T</tspan><tspan x="73.92" y="0">OPTION</tspan></text>
</svg>
