<svg id="logo" data-name="Lager 1" xmlns="http://www.w3.org/2000/svg" viewBox="0 0 650.92 416.71">
  <defs>
    <style>
      .lgt-1 {
        font-size: 72px;
        font-family: JosefinSans, Josefin Sans;
      }

      .lgt-1, .lgt-4 {
        fill: #382216;
      }

      .lgt-2 {
        letter-spacing: -0.06em;
      }

      .lgt-3 {
        letter-spacing: -0.03em;
      }

      .lgt-5 {
        fill: none;
        stroke: #382216;
        stroke-miterlimit: 10;
        stroke-width: 4px;
      }
    </style>
  </defs>
  <text class="lgt-1" transform="translate(126.15 270.98)"><tspan class="lgt-2">A</tspan><tspan class="lgt-3" x="41.83" y="0">T</tspan><tspan x="78.26" y="0">OPTION</tspan></text>
  <rect class="lgt-4" y="193.21" width="564" height="3"/>
  <rect class="lgt-4" y="294.21" width="564" height="3"/>
  <path class="lgt-4" d="M617.81,405.5c-4.25,8.14-18.28,8.91-25.93,6.28-8.39-2.89-14.81-10.5-12.46-19.75,4.5-17.74,27.46-24.4,41-33.43,4.76-3.18,11.13-7.69,11.49-14,.29-5.08-3.89-9.6-8-11.93-10-5.65-23.59-7.49-34.93-8-2.41-.11-2.41,3.64,0,3.75a104.76,104.76,0,0,1,21.79,3.44c5.81,1.52,15.21,3.73,17.16,10.48,2.69,9.31-16.09,17.15-22.33,20.56-7.49,4.1-15.07,8.37-21.19,14.41-9.81,9.68-13.31,24.84-1,34.11a28.56,28.56,0,0,0,21,5.16c6.17-.81,13.69-3.29,16.76-9.18,1.11-2.14-2.12-4-3.24-1.89Z" transform="translate(-513 -134.79)"/>
  <path class="lgt-5" d="M592.81,326.7S499,326.7,563.72,222c3-4.92,2-19.19,2-19.19s-2.77-2.19-7.56,4.39c0,0,1.92-11.52,3.83-13.16a22.07,22.07,0,0,0-8.62,9.87s1-21.94,9.1-25.23c0,0-7.66,2.19-12.46,14.81,0,0-3.35-12.61,11.5-24.13,0,0-3.35-4.94-3.35-9.32s1.92-17,1.92-17,16.29,7.68,16.77,13.71c0,0,6.71-.55,10.54,2.19,0,0,9.1-5.48,14.37-5.48,0,0,8.62-13.16,14.37-15.9,0,0,5.27,12.61,3.35,18.1a40.08,40.08,0,0,1-5.27,9.87s11,12.61,11,17c0,0-5.27.55-7.66-1.65,0,0,8.14,7.13,8.14,15.9,0,0-5.27-2.19-8.14-4.94,0,0,5.27,9.87,5.75,13.16,0,0-6.71-4.94-7.19-5.48" transform="translate(-513 -134.79)"/>
</svg>
