<svg id="Lager_1" data-name="Lager 1" xmlns="http://www.w3.org/2000/svg" viewBox="0 0 456.1 282.1">
  <defs>
    <style>
      .logo-1 {
        fill: #ffffff;  <!--382216-->
      }

      .logo-2 {
        fill: none;
        stroke: #ffffff;
        stroke-miterlimit: 10;
        stroke-width: 4px;
      }
    </style>
  </defs>
  <title>logotype</title>
  <rect class="logo-1" y="191.9" width="456.1" height="3.53"/>
  <path class="logo-1" d="M104.8,279.7c-4.3,8.1-18.3,8.9-25.9,6.3-8.4-2.9-14.8-10.5-12.5-19.8,4.5-17.7,27.5-24.4,41-33.4,4.8-3.2,11.1-7.7,11.5-14,.3-5.1-3.9-9.6-8-11.9-10-5.6-23.6-7.5-34.9-8-2.4-.1-2.4,3.6,0,3.8a106.46,106.46,0,0,1,21.8,3.4c5.8,1.5,15.2,3.7,17.2,10.5,2.7,9.3-16.1,17.1-22.3,20.6-7.5,4.1-15.1,8.4-21.2,14.4-9.8,9.7-13.3,24.8-1,34.1a28.67,28.67,0,0,0,21,5.2c6.2-.8,13.7-3.3,16.8-9.2,1.1-2.1-2.1-4-3.2-1.9Z" transform="translate(0 -9.11)"/>
  <path class="logo-2" d="M79.8,200.9s-93.8,0-29.1-104.7c3-4.9,2-19.2,2-19.2s-2.8-2.2-7.6,4.4c0,0,1.9-11.5,3.8-13.2a21.81,21.81,0,0,0-8.6,9.9s1-21.9,9.1-25.2c0,0-7.7,2.2-12.5,14.8,0,0-3.3-12.6,11.5-24.1,0,0-3.3-4.9-3.3-9.3s1.9-17,1.9-17S63.4,24.9,63.8,31c0,0,6.7-.6,10.5,2.2,0,0,9.1-5.5,14.4-5.5,0,0,8.6-13.2,14.4-15.9,0,0,5.3,12.6,3.3,18.1a43,43,0,0,1-5.3,9.9s11,12.6,11,17c0,0-5.3.6-7.7-1.6,0,0,8.1,7.1,8.1,15.9,0,0-5.3-2.2-8.1-4.9,0,0,5.3,9.9,5.8,13.2,0,0-6.7-4.9-7.2-5.5" transform="translate(0 -9.11)"/>
  <g>
    <path class="logo-1" d="M102.63,172.14q-1.36-3.13-3.2-7.68t-3.81-9.66H77q-2,5.1-3.81,9.66T70,172.14H65.37l2.72-6.49q1.7-4,3.67-8.87t4.08-10q2.11-5.2,4.08-10t3.64-8.84q1.67-4,2.75-6.53,1,2.52,2.72,6.53t3.67,8.84q2,4.83,4.11,10t4.11,10q2,4.83,3.64,8.87t2.75,6.49Zm-17-38.9q-1.36,3.2-3.23,7.82t-3.84,9.72h15.5q-2-5.1-3.88-9.72T87,133.24a6.8,6.8,0,0,1-.34-.92q-.2-.65-.34-1.19-.14.54-.34,1.19A7,7,0,0,1,85.63,133.24Z" transform="translate(0 -9.11)"/>
    <path class="logo-1" d="M137.31,123.59V128H124.4v44.13H119.7V128H106.92v-4.42Z" transform="translate(0 -9.11)"/>
    <path class="logo-1" d="M141.6,147.93a24.17,24.17,0,0,1,1.94-9.62A25.07,25.07,0,0,1,156.73,125a23.81,23.81,0,0,1,9.62-2,24.06,24.06,0,0,1,9.66,2,25,25,0,0,1,7.92,5.37,25.84,25.84,0,0,1,5.34,7.92,24.46,24.46,0,0,1,0,19.24,25.4,25.4,0,0,1-5.34,7.89,24.82,24.82,0,0,1-7.92,5.3,24.42,24.42,0,0,1-9.66,1.94,24.17,24.17,0,0,1-9.62-1.94,24.73,24.73,0,0,1-13.19-13.19A24.17,24.17,0,0,1,141.6,147.93Zm4.62,0a19.78,19.78,0,0,0,1.6,7.92,20.79,20.79,0,0,0,4.32,6.46,20.23,20.23,0,0,0,6.39,4.35,19.38,19.38,0,0,0,7.82,1.6,19.63,19.63,0,0,0,7.85-1.6A20.36,20.36,0,0,0,185,155.85,20.43,20.43,0,0,0,185,140a21,21,0,0,0-4.35-6.49,20.26,20.26,0,0,0-6.46-4.39,19.64,19.64,0,0,0-7.85-1.6,19.31,19.31,0,0,0-7.85,1.6A20.44,20.44,0,0,0,147.79,140,20.15,20.15,0,0,0,146.22,147.93Z" transform="translate(0 -9.11)"/>
    <path class="logo-1" d="M201.57,172.14V123.59h11.76a20.64,20.64,0,0,1,5.92.85,14.78,14.78,0,0,1,5.07,2.62,13.06,13.06,0,0,1,3.54,4.42,14,14,0,0,1,1.33,6.32,17.42,17.42,0,0,1-.88,5.47,13.19,13.19,0,0,1-2.75,4.76,13.77,13.77,0,0,1-4.86,3.37,18.12,18.12,0,0,1-7.21,1.29H206.2v19.45Zm4.62-23.87h7.21a12.44,12.44,0,0,0,5.44-1.05,9.6,9.6,0,0,0,3.43-2.65,9.77,9.77,0,0,0,1.77-3.4,12.2,12.2,0,0,0,.51-3.3,9.8,9.8,0,0,0-.71-3.64,9.61,9.61,0,0,0-2.07-3.2,10,10,0,0,0-3.47-2.24,12.84,12.84,0,0,0-4.83-.85H206.2Z" transform="translate(0 -9.11)"/>
    <path class="logo-1" d="M265.49,123.59V128H252.57v44.13h-4.69V128H235.1v-4.42Z" transform="translate(0 -9.11)"/>
    <path class="logo-1" d="M275.49,123.59h4.69v48.55h-4.69Z" transform="translate(0 -9.11)"/>
    <path class="logo-1" d="M290.45,147.93a24.17,24.17,0,0,1,1.94-9.62A25.07,25.07,0,0,1,305.58,125a23.81,23.81,0,0,1,9.62-2,24.05,24.05,0,0,1,9.66,2,25,25,0,0,1,7.92,5.37,25.83,25.83,0,0,1,5.34,7.92,24.46,24.46,0,0,1,0,19.24,25.39,25.39,0,0,1-5.34,7.89,24.83,24.83,0,0,1-7.92,5.3,24.41,24.41,0,0,1-9.66,1.94,24.17,24.17,0,0,1-9.62-1.94,24.74,24.74,0,0,1-13.19-13.19A24.17,24.17,0,0,1,290.45,147.93Zm4.62,0a19.78,19.78,0,0,0,1.6,7.92,20.8,20.8,0,0,0,4.32,6.46,20.23,20.23,0,0,0,6.39,4.35,19.38,19.38,0,0,0,7.82,1.6,19.63,19.63,0,0,0,7.85-1.6,20.35,20.35,0,0,0,10.81-10.81,20.44,20.44,0,0,0,0-15.84,21,21,0,0,0-4.35-6.49,20.28,20.28,0,0,0-6.46-4.39,19.64,19.64,0,0,0-7.85-1.6,19.31,19.31,0,0,0-7.85,1.6A20.44,20.44,0,0,0,296.63,140,20.16,20.16,0,0,0,295.07,147.93Z" transform="translate(0 -9.11)"/>
    <path class="logo-1" d="M391.7,123.59v50.8q-2-2.38-4.86-5.68t-6.26-7q-3.37-3.74-6.94-7.65t-6.9-7.65q-3.33-3.74-6.09-7t-4.52-5.61l-.61-.78c-.27-.34-.52-.67-.75-1l.2,2.18v37.94h-4.62v-50.8q2,2.52,4.83,5.78t6.22,6.94l6.9,7.55,6.83,7.51q3.3,3.64,6.15,6.87T386,161.6a3.58,3.58,0,0,0,.54.85q.41.51.75,1l-.2-2.24v-37.6Z" transform="translate(0 -9.11)"/>
  </g>
</svg>
